<svg xmlns="http://www.w3.org/2000/svg" version="1.1" xmlns:xlink="http://www.w3.org/1999/xlink" width="1000" height="1000"><g clip-path="url(#SvgjsClipPath1001)"><rect width="1000" height="1000" fill="#ffffff"></rect><g transform="matrix(3.5,0,0,3.5,150,150)"><svg xmlns="http://www.w3.org/2000/svg" version="1.1" xmlns:xlink="http://www.w3.org/1999/xlink" viewBox="0 0 200 200" width="200" height="200"><rect width="200" height="200" fill="url('#gradient')"></rect><defs><linearGradient id="gradient" gradientTransform="rotate(56 0.5 0.5)"><stop offset="0%" stop-color="#1b3855"></stop><stop offset="100%" stop-color="#0e5278"></stop></linearGradient><clipPath id="SvgjsClipPath1001"><rect width="1000" height="1000" x="0" y="0" rx="350" ry="350"></rect></clipPath></defs><g><g fill="#dee90b" transform="matrix(3.5023149113660064,0,0,3.5023149113660064,18.099579220038137,125.91947313955106)" stroke="#1b3855" stroke-width="0.6"><path d="M3.77-14.22L6.59-3.87L9.42-14.22L13.25-14.22L8.47 0L4.72 0L-0.03-14.22L3.77-14.22ZM22.93 0L19.64 0Q19.46-0.32 19.33-0.95L19.33-0.95Q18.42 0.20 16.79 0.20L16.79 0.20Q15.29 0.20 14.25-0.71Q13.20-1.61 13.20-2.98L13.20-2.98Q13.20-4.70 14.47-5.58Q15.74-6.46 18.16-6.46L18.16-6.46L19.18-6.46L19.18-7.01Q19.18-8.47 17.92-8.47L17.92-8.47Q16.75-8.47 16.75-7.31L16.75-7.31L13.46-7.31Q13.46-8.85 14.76-9.80Q16.06-10.76 18.09-10.76Q20.11-10.76 21.28-9.78Q22.45-8.79 22.48-7.07L22.48-7.07L22.48-2.39Q22.50-0.94 22.93-0.17L22.93-0.17L22.93 0ZM17.58-2.15L17.58-2.15Q18.19-2.15 18.60-2.41Q19.00-2.68 19.18-3.01L19.18-3.01L19.18-4.70L18.22-4.70Q16.50-4.70 16.50-3.15L16.50-3.15Q16.50-2.71 16.81-2.43Q17.11-2.15 17.58-2.15ZM30.69 0L30.60-1.14Q29.55 0.20 27.77 0.20L27.77 0.20Q26.04 0.20 25.14-0.82Q24.25-1.83 24.25-3.72L24.25-3.72L24.25-10.57L27.54-10.57L27.54-3.70Q27.54-2.34 28.86-2.34L28.86-2.34Q29.99-2.34 30.47-3.15L30.47-3.15L30.47-10.57L33.78-10.57L33.78 0L30.69 0ZM39.05-15L39.05 0L35.75 0L35.75-15L39.05-15ZM41.62-13.19L44.91-13.19L44.91-10.57L46.65-10.57L46.65-8.28L44.91-8.28L44.91-3.45Q44.91-2.85 45.13-2.62Q45.34-2.38 45.98-2.38L45.98-2.38Q46.46-2.38 46.80-2.44L46.80-2.44L46.80-0.09Q45.91 0.20 44.94 0.20L44.94 0.20Q43.24 0.20 42.43-0.61Q41.62-1.41 41.62-3.04L41.62-3.04L41.62-8.28L40.27-8.28L40.27-10.57L41.62-10.57L41.62-13.19Z"></path></g></g></svg></g></g></svg>